<mxfile host="app.diagrams.net" agent="Mozilla/5.0 (X11; Linux x86_64) AppleWebKit/537.36 (KHTML, like Gecko) Chrome/122.0.0.0 Safari/537.36" version="25.0.3" pages="2">
  <diagram name="Page-1" id="3NkPEegQpbnoy04LoR7H">
    <mxGraphModel dx="908" dy="529" grid="1" gridSize="10" guides="1" tooltips="1" connect="1" arrows="1" fold="1" page="1" pageScale="1" pageWidth="1169" pageHeight="827" math="1" shadow="0">
      <root>
        <mxCell id="0" />
        <mxCell id="1" parent="0" />
        <mxCell id="99oMwOxSA2TOYPoTBWzr-1" value="Conv 9x9&lt;div&gt;32 Filters, Stride 3&lt;/div&gt;" style="rounded=0;whiteSpace=wrap;html=1;rotation=-90;" vertex="1" parent="1">
          <mxGeometry x="40" y="160" width="280" height="40" as="geometry" />
        </mxCell>
        <mxCell id="99oMwOxSA2TOYPoTBWzr-2" value="Conv 9x9&lt;div&gt;32 Filters, Stride 3&lt;/div&gt;" style="rounded=0;whiteSpace=wrap;html=1;rotation=-90;" vertex="1" parent="1">
          <mxGeometry x="440" y="160" width="280" height="40" as="geometry" />
        </mxCell>
        <mxCell id="99oMwOxSA2TOYPoTBWzr-3" value="Conv 5x5&lt;div&gt;16 Filters, Stride 2&lt;/div&gt;" style="rounded=0;whiteSpace=wrap;html=1;rotation=-90;" vertex="1" parent="1">
          <mxGeometry x="160" y="160" width="200" height="40" as="geometry" />
        </mxCell>
        <mxCell id="99oMwOxSA2TOYPoTBWzr-4" value="Conv&amp;nbsp; Transpose 3x3&lt;div&gt;8 Filters, Stride 2&lt;/div&gt;" style="rounded=0;whiteSpace=wrap;html=1;rotation=-90;" vertex="1" parent="1">
          <mxGeometry x="360" y="160" width="120" height="40" as="geometry" />
        </mxCell>
        <mxCell id="99oMwOxSA2TOYPoTBWzr-5" value="Conv&amp;nbsp; Transpose 3x3&lt;div&gt;16 Filters, Stride 2&lt;/div&gt;" style="rounded=0;whiteSpace=wrap;html=1;rotation=-90;" vertex="1" parent="1">
          <mxGeometry x="400" y="160" width="200" height="40" as="geometry" />
        </mxCell>
        <mxCell id="99oMwOxSA2TOYPoTBWzr-6" value="Conv 3x3&lt;div&gt;8 Filters, Stride 2&lt;/div&gt;" style="rounded=0;whiteSpace=wrap;html=1;rotation=-90;" vertex="1" parent="1">
          <mxGeometry x="280" y="160" width="120" height="40" as="geometry" />
        </mxCell>
        <mxCell id="99oMwOxSA2TOYPoTBWzr-8" value="" style="endArrow=classic;html=1;rounded=0;exitX=0.5;exitY=1;exitDx=0;exitDy=0;" edge="1" parent="1" source="99oMwOxSA2TOYPoTBWzr-1">
          <mxGeometry width="50" height="50" relative="1" as="geometry">
            <mxPoint x="190" y="230" as="sourcePoint" />
            <mxPoint x="240" y="180" as="targetPoint" />
          </mxGeometry>
        </mxCell>
        <mxCell id="99oMwOxSA2TOYPoTBWzr-9" value="" style="endArrow=classic;html=1;rounded=0;exitX=0.5;exitY=1;exitDx=0;exitDy=0;" edge="1" parent="1">
          <mxGeometry width="50" height="50" relative="1" as="geometry">
            <mxPoint x="280" y="179.67" as="sourcePoint" />
            <mxPoint x="320" y="179.67" as="targetPoint" />
          </mxGeometry>
        </mxCell>
        <mxCell id="99oMwOxSA2TOYPoTBWzr-13" value="Filter" style="whiteSpace=wrap;html=1;aspect=fixed;" vertex="1" parent="1">
          <mxGeometry x="640" y="80" width="40" height="40" as="geometry" />
        </mxCell>
        <mxCell id="99oMwOxSA2TOYPoTBWzr-18" value="" style="rounded=0;whiteSpace=wrap;html=1;fillColor=none;" vertex="1" parent="1">
          <mxGeometry x="640" y="200" width="80" height="40" as="geometry" />
        </mxCell>
        <mxCell id="99oMwOxSA2TOYPoTBWzr-19" value="&lt;span style=&quot;font-family: SFMono-Regular, Menlo, Monaco, Consolas, &amp;quot;Liberation Mono&amp;quot;, &amp;quot;Courier New&amp;quot;, monospace; font-size: 14px; text-align: left; background-color: rgb(255, 255, 255);&quot;&gt;&lt;font color=&quot;#33001a&quot;&gt;` sin(2 Phi_theta)`&lt;/font&gt;&lt;/span&gt;" style="text;html=1;align=center;verticalAlign=middle;whiteSpace=wrap;rounded=0;" vertex="1" parent="1">
          <mxGeometry x="650" y="285" width="60" height="30" as="geometry" />
        </mxCell>
        <mxCell id="99oMwOxSA2TOYPoTBWzr-20" value="300x300 pixels" style="text;html=1;whiteSpace=wrap;overflow=hidden;rounded=0;" vertex="1" parent="1">
          <mxGeometry x="830" y="300" width="90" height="20" as="geometry" />
        </mxCell>
        <mxCell id="99oMwOxSA2TOYPoTBWzr-21" value="&lt;span style=&quot;font-family: SFMono-Regular, Menlo, Monaco, Consolas, &amp;quot;Liberation Mono&amp;quot;, &amp;quot;Courier New&amp;quot;, monospace; font-size: 14px; text-align: left; background-color: rgb(255, 255, 255);&quot;&gt;&lt;font color=&quot;#33001a&quot;&gt;` cos(2 Phi_theta)`&lt;/font&gt;&lt;/span&gt;" style="text;html=1;align=center;verticalAlign=middle;whiteSpace=wrap;rounded=0;" vertex="1" parent="1">
          <mxGeometry x="650" y="205" width="60" height="30" as="geometry" />
        </mxCell>
        <mxCell id="99oMwOxSA2TOYPoTBWzr-22" value="" style="rounded=0;whiteSpace=wrap;html=1;fillColor=none;" vertex="1" parent="1">
          <mxGeometry x="640" y="280" width="80" height="40" as="geometry" />
        </mxCell>
        <mxCell id="99oMwOxSA2TOYPoTBWzr-23" value="arctan" style="whiteSpace=wrap;html=1;aspect=fixed;" vertex="1" parent="1">
          <mxGeometry x="760" y="240" width="40" height="40" as="geometry" />
        </mxCell>
        <mxCell id="99oMwOxSA2TOYPoTBWzr-24" value="&lt;span style=&quot;text-align: left; background-color: rgb(255, 255, 255);&quot;&gt;&lt;font face=&quot;Times New Roman&quot; style=&quot;font-size: 24px;&quot; color=&quot;#33001a&quot;&gt;` tilde(\textbW)_theta`&lt;/font&gt;&lt;/span&gt;" style="text;html=1;align=center;verticalAlign=middle;whiteSpace=wrap;rounded=0;fontStyle=0" vertex="1" parent="1">
          <mxGeometry x="835" y="170" width="60" height="30" as="geometry" />
        </mxCell>
        <mxCell id="99oMwOxSA2TOYPoTBWzr-26" value="&lt;span style=&quot;text-align: left; background-color: rgb(255, 255, 255);&quot;&gt;&lt;font face=&quot;Times New Roman&quot; style=&quot;font-size: 24px;&quot; color=&quot;#33001a&quot;&gt;` tilde(\textb Phi)_theta`&lt;/font&gt;&lt;/span&gt;" style="text;html=1;align=center;verticalAlign=middle;whiteSpace=wrap;rounded=0;" vertex="1" parent="1">
          <mxGeometry x="835" y="240" width="60" height="30" as="geometry" />
        </mxCell>
        <mxCell id="99oMwOxSA2TOYPoTBWzr-27" value="&lt;span style=&quot;text-align: left; background-color: rgb(255, 255, 255);&quot;&gt;&lt;font face=&quot;Times New Roman&quot; style=&quot;font-size: 24px;&quot; color=&quot;#33001a&quot;&gt;` tilde(\textbQ)_theta`&lt;/font&gt;&lt;/span&gt;" style="text;html=1;align=center;verticalAlign=middle;whiteSpace=wrap;rounded=0;" vertex="1" parent="1">
          <mxGeometry x="835" y="85" width="60" height="30" as="geometry" />
        </mxCell>
        <mxCell id="99oMwOxSA2TOYPoTBWzr-29" value="" style="whiteSpace=wrap;html=1;aspect=fixed;fillColor=none;" vertex="1" parent="1">
          <mxGeometry x="830" y="65" width="70" height="70" as="geometry" />
        </mxCell>
        <mxCell id="99oMwOxSA2TOYPoTBWzr-30" value="" style="whiteSpace=wrap;html=1;aspect=fixed;fillColor=none;" vertex="1" parent="1">
          <mxGeometry x="830" y="145" width="70" height="70" as="geometry" />
        </mxCell>
        <mxCell id="99oMwOxSA2TOYPoTBWzr-31" value="" style="whiteSpace=wrap;html=1;aspect=fixed;fillColor=none;" vertex="1" parent="1">
          <mxGeometry x="830" y="220" width="70" height="70" as="geometry" />
        </mxCell>
        <mxCell id="99oMwOxSA2TOYPoTBWzr-32" value="&lt;span style=&quot;text-align: left; background-color: rgb(255, 255, 255);&quot;&gt;&lt;font style=&quot;&quot; color=&quot;#33001a&quot;&gt;&lt;font style=&quot;font-size: 150px;&quot; face=&quot;SFMono-Regular, Menlo, Monaco, Consolas, Liberation Mono, Courier New, monospace&quot;&gt;&lt;span style=&quot;line-height: 100%;&quot;&gt;`}`&lt;/span&gt;&lt;/font&gt;&lt;/font&gt;&lt;/span&gt;" style="text;html=1;align=center;verticalAlign=middle;whiteSpace=wrap;rounded=0;" vertex="1" parent="1">
          <mxGeometry x="920" y="90" width="60" height="180" as="geometry" />
        </mxCell>
        <mxCell id="99oMwOxSA2TOYPoTBWzr-34" value="&lt;span style=&quot;font-family: SFMono-Regular, Menlo, Monaco, Consolas, &amp;quot;Liberation Mono&amp;quot;, &amp;quot;Courier New&amp;quot;, monospace; text-align: left; background-color: rgb(255, 255, 255);&quot;&gt;&lt;font style=&quot;font-size: 50px;&quot; color=&quot;#33001a&quot;&gt;` tilde(G)_theta`&lt;/font&gt;&lt;/span&gt;" style="text;html=1;align=center;verticalAlign=middle;whiteSpace=wrap;rounded=0;" vertex="1" parent="1">
          <mxGeometry x="1000" y="109" width="60" height="126" as="geometry" />
        </mxCell>
        <mxCell id="99oMwOxSA2TOYPoTBWzr-35" value="" style="endArrow=classic;html=1;rounded=0;exitX=0.5;exitY=1;exitDx=0;exitDy=0;" edge="1" parent="1">
          <mxGeometry width="50" height="50" relative="1" as="geometry">
            <mxPoint x="360" y="180" as="sourcePoint" />
            <mxPoint x="400" y="180" as="targetPoint" />
          </mxGeometry>
        </mxCell>
        <mxCell id="99oMwOxSA2TOYPoTBWzr-36" value="" style="endArrow=classic;html=1;rounded=0;exitX=0.5;exitY=1;exitDx=0;exitDy=0;" edge="1" parent="1">
          <mxGeometry width="50" height="50" relative="1" as="geometry">
            <mxPoint x="440" y="180" as="sourcePoint" />
            <mxPoint x="480" y="180" as="targetPoint" />
          </mxGeometry>
        </mxCell>
        <mxCell id="99oMwOxSA2TOYPoTBWzr-37" value="" style="endArrow=classic;html=1;rounded=0;exitX=0.5;exitY=1;exitDx=0;exitDy=0;" edge="1" parent="1">
          <mxGeometry width="50" height="50" relative="1" as="geometry">
            <mxPoint x="520" y="179.33" as="sourcePoint" />
            <mxPoint x="560" y="179.33" as="targetPoint" />
          </mxGeometry>
        </mxCell>
        <mxCell id="99oMwOxSA2TOYPoTBWzr-38" value="" style="endArrow=classic;html=1;rounded=0;exitX=0.5;exitY=1;exitDx=0;exitDy=0;" edge="1" parent="1">
          <mxGeometry width="50" height="50" relative="1" as="geometry">
            <mxPoint x="600" y="299.67" as="sourcePoint" />
            <mxPoint x="640" y="299.67" as="targetPoint" />
          </mxGeometry>
        </mxCell>
        <mxCell id="99oMwOxSA2TOYPoTBWzr-39" value="" style="endArrow=classic;html=1;rounded=0;exitX=0.5;exitY=1;exitDx=0;exitDy=0;" edge="1" parent="1">
          <mxGeometry width="50" height="50" relative="1" as="geometry">
            <mxPoint x="600" y="219.33" as="sourcePoint" />
            <mxPoint x="640" y="219.33" as="targetPoint" />
          </mxGeometry>
        </mxCell>
        <mxCell id="99oMwOxSA2TOYPoTBWzr-40" value="" style="endArrow=classic;html=1;rounded=0;exitX=0.5;exitY=1;exitDx=0;exitDy=0;" edge="1" parent="1">
          <mxGeometry width="50" height="50" relative="1" as="geometry">
            <mxPoint x="600" y="99.67000000000002" as="sourcePoint" />
            <mxPoint x="640" y="99.67000000000002" as="targetPoint" />
          </mxGeometry>
        </mxCell>
        <mxCell id="99oMwOxSA2TOYPoTBWzr-41" value="" style="endArrow=classic;html=1;rounded=0;exitX=0.5;exitY=1;exitDx=0;exitDy=0;entryX=0;entryY=0.5;entryDx=0;entryDy=0;" edge="1" parent="1" target="99oMwOxSA2TOYPoTBWzr-30">
          <mxGeometry width="50" height="50" relative="1" as="geometry">
            <mxPoint x="600" y="180" as="sourcePoint" />
            <mxPoint x="800" y="180" as="targetPoint" />
          </mxGeometry>
        </mxCell>
        <mxCell id="99oMwOxSA2TOYPoTBWzr-42" value="" style="endArrow=classic;html=1;rounded=0;exitX=0.5;exitY=1;exitDx=0;exitDy=0;entryX=0.5;entryY=0;entryDx=0;entryDy=0;" edge="1" parent="1" target="99oMwOxSA2TOYPoTBWzr-23">
          <mxGeometry width="50" height="50" relative="1" as="geometry">
            <mxPoint x="720" y="220" as="sourcePoint" />
            <mxPoint x="760" y="220" as="targetPoint" />
            <Array as="points">
              <mxPoint x="780" y="220" />
            </Array>
          </mxGeometry>
        </mxCell>
        <mxCell id="99oMwOxSA2TOYPoTBWzr-43" value="" style="endArrow=classic;html=1;rounded=0;exitX=0.5;exitY=1;exitDx=0;exitDy=0;entryX=-0.019;entryY=0.567;entryDx=0;entryDy=0;entryPerimeter=0;" edge="1" parent="1" target="99oMwOxSA2TOYPoTBWzr-31">
          <mxGeometry width="50" height="50" relative="1" as="geometry">
            <mxPoint x="800" y="259.33000000000004" as="sourcePoint" />
            <mxPoint x="840" y="259.33000000000004" as="targetPoint" />
          </mxGeometry>
        </mxCell>
        <mxCell id="99oMwOxSA2TOYPoTBWzr-44" value="" style="endArrow=classic;html=1;rounded=0;exitX=0.5;exitY=1;exitDx=0;exitDy=0;" edge="1" parent="1">
          <mxGeometry width="50" height="50" relative="1" as="geometry">
            <mxPoint x="680" y="99.67000000000002" as="sourcePoint" />
            <mxPoint x="830" y="100" as="targetPoint" />
          </mxGeometry>
        </mxCell>
        <mxCell id="99oMwOxSA2TOYPoTBWzr-45" value="" style="endArrow=classic;html=1;rounded=0;exitX=0.5;exitY=1;exitDx=0;exitDy=0;entryX=0.5;entryY=1;entryDx=0;entryDy=0;" edge="1" parent="1" target="99oMwOxSA2TOYPoTBWzr-23">
          <mxGeometry width="50" height="50" relative="1" as="geometry">
            <mxPoint x="720" y="299.67" as="sourcePoint" />
            <mxPoint x="760" y="299.67" as="targetPoint" />
            <Array as="points">
              <mxPoint x="780" y="300" />
            </Array>
          </mxGeometry>
        </mxCell>
        <mxCell id="99oMwOxSA2TOYPoTBWzr-46" value="" style="rounded=0;whiteSpace=wrap;html=1;dashed=1;dashPattern=8 8;fillColor=none;" vertex="1" parent="1">
          <mxGeometry x="140" y="20" width="480" height="320" as="geometry" />
        </mxCell>
        <mxCell id="99oMwOxSA2TOYPoTBWzr-47" value="Inpainted&lt;div&gt;Depth Image (&lt;font style=&quot;font-size: 15px;&quot; face=&quot;Times New Roman&quot;&gt;&lt;b style=&quot;&quot;&gt;I&lt;/b&gt;&lt;/font&gt;)&lt;/div&gt;&lt;div&gt;300x300 pixels&lt;/div&gt;" style="whiteSpace=wrap;html=1;aspect=fixed;" vertex="1" parent="1">
          <mxGeometry x="10" y="140" width="80" height="80" as="geometry" />
        </mxCell>
        <mxCell id="99oMwOxSA2TOYPoTBWzr-48" value="" style="endArrow=classic;html=1;rounded=0;exitX=0.5;exitY=1;exitDx=0;exitDy=0;entryX=0;entryY=0.5;entryDx=0;entryDy=0;" edge="1" parent="1" target="99oMwOxSA2TOYPoTBWzr-46">
          <mxGeometry width="50" height="50" relative="1" as="geometry">
            <mxPoint x="90" y="179.66000000000005" as="sourcePoint" />
            <mxPoint x="119" y="180.33" as="targetPoint" />
          </mxGeometry>
        </mxCell>
      </root>
    </mxGraphModel>
  </diagram>
  <diagram id="iB9Msrg3VeEgENdm1uEp" name="Page-2">
    <mxGraphModel dx="1362" dy="793" grid="1" gridSize="10" guides="1" tooltips="1" connect="1" arrows="1" fold="1" page="1" pageScale="1" pageWidth="1169" pageHeight="827" math="1" shadow="0">
      <root>
        <mxCell id="0" />
        <mxCell id="1" parent="0" />
        <mxCell id="SluvS928VfAoeRTBhuKv-1" value="&lt;span style=&quot;font-family: SFMono-Regular, Menlo, Monaco, Consolas, &amp;quot;Liberation Mono&amp;quot;, &amp;quot;Courier New&amp;quot;, monospace; font-size: 14px; text-align: left; background-color: rgb(255, 255, 255);&quot;&gt;&lt;font color=&quot;#33001a&quot;&gt;` sin(2 Phi_theta)`&lt;/font&gt;&lt;/span&gt;" style="text;html=1;align=center;verticalAlign=middle;whiteSpace=wrap;rounded=0;" vertex="1" parent="1">
          <mxGeometry x="610" y="470" width="60" height="30" as="geometry" />
        </mxCell>
      </root>
    </mxGraphModel>
  </diagram>
</mxfile>
